<?xml version="1.0" encoding="UTF-8" standalone="no"?>
<!DOCTYPE svg PUBLIC "-//W3C//DTD SVG 1.1//EN" "http://www.w3.org/Graphics/SVG/1.1/DTD/svg11.dtd">
<svg version="1.1" xmlns="http://www.w3.org/2000/svg" xmlns:xlink="http://www.w3.org/1999/xlink" preserveAspectRatio="xMidYMid meet" viewBox="0 0 151 151" width="151" height="151"><defs><path d="M75 150.6C33.61 150.6 0 116.99 0 75.6C0 34.21 33.61 0.6 75 0.6C116.4 0.6 150 34.21 150 75.6C150 116.99 116.4 150.6 75 150.6Z" id="a1fhsRwahz"></path><path d="M75.26 145.4C36.63 145.4 5.26 114.03 5.26 75.4C5.26 36.76 36.63 5.4 75.26 5.4C113.9 5.4 145.26 36.76 145.26 75.4C145.26 114.03 113.9 145.4 75.26 145.4Z" id="a6hE0Pxkgf"></path><path d="M88.87 30.78L89.47 30.88L89.76 30.95L90.05 31.03L90.34 31.12L90.62 31.22L90.89 31.33L91.16 31.45L91.43 31.58L91.68 31.72L91.94 31.88L92.18 32.04L92.42 32.21L92.88 32.57L93.1 32.77L93.31 32.97L93.51 33.19L93.89 33.63L94.07 33.87L94.23 34.11L94.39 34.36L94.54 34.61L94.68 34.87L94.81 35.14L94.93 35.41L95.05 35.69L95.14 35.97L95.23 36.26L95.31 36.55L95.38 36.85L95.43 37.15L95.48 37.46L95.51 37.76L95.53 38.08L95.53 42.23L114.83 42.23L115.13 42.25L115.44 42.28L116.04 42.38L116.34 42.45L116.62 42.53L116.91 42.62L117.19 42.72L117.47 42.83L117.73 42.95L118 43.08L118.26 43.22L118.51 43.38L118.75 43.54L118.99 43.71L119.23 43.89L119.45 44.07L119.67 44.27L119.88 44.47L120.28 44.91L120.46 45.13L120.64 45.37L120.81 45.61L120.97 45.86L121.12 46.11L121.26 46.37L121.39 46.64L121.51 46.91L121.62 47.19L121.72 47.47L121.81 47.76L121.88 48.05L121.95 48.35L122.01 48.65L122.05 48.96L122.08 49.26L122.1 49.58L122.1 61.71L122.08 62.02L122.05 62.33L122.01 62.64L121.95 62.94L121.88 63.23L121.81 63.53L121.72 63.81L121.62 64.1L121.51 64.37L121.39 64.65L121.26 64.91L121.12 65.17L120.97 65.43L120.81 65.68L120.64 65.92L120.28 66.38L120.08 66.6L119.88 66.81L119.67 67.02L119.23 67.4L118.99 67.58L118.75 67.75L118.51 67.91L118.26 68.06L118 68.2L117.74 68.33L117.47 68.46L117.19 68.57L116.91 68.67L116.63 68.76L116.34 68.84L115.74 68.96L115.44 69L115.13 69.03L114.83 69.05L114.51 69.06L84.14 69.06L84.14 66.99L84.12 66.83L84.11 66.76L84.09 66.68L84.05 66.54L84.02 66.47L84 66.4L83.97 66.33L83.93 66.26L83.9 66.2L83.86 66.13L83.78 66.01L83.73 65.95L83.69 65.9L83.64 65.84L83.54 65.74L83.48 65.69L83.43 65.64L83.37 65.6L83.31 65.55L83.25 65.51L83.18 65.48L83.12 65.44L83.05 65.41L82.99 65.38L82.85 65.32L82.78 65.3L82.7 65.28L82.63 65.27L82.55 65.25L82.48 65.24L82.4 65.23L70.7 65.23L70.63 65.24L70.55 65.25L70.48 65.27L70.4 65.28L70.33 65.3L70.26 65.32L70.05 65.41L69.99 65.44L69.92 65.48L69.86 65.51L69.8 65.55L69.74 65.6L69.68 65.64L69.62 65.69L69.47 65.84L69.42 65.9L69.37 65.95L69.33 66.01L69.28 66.07L69.24 66.13L69.21 66.2L69.17 66.26L69.08 66.47L69.06 66.54L69.03 66.61L69.02 66.68L69 66.76L68.98 66.83L68.97 66.91L68.97 66.99L68.96 67.06L68.96 69.06L38.59 69.06L38.28 69.05L37.97 69.03L37.66 69L37.36 68.96L37.06 68.9L36.77 68.84L36.48 68.76L36.19 68.67L35.91 68.57L35.64 68.46L35.37 68.33L35.11 68.2L34.85 68.06L34.59 67.91L34.35 67.75L34.11 67.58L33.88 67.4L33.65 67.21L33.44 67.02L33.02 66.6L32.83 66.38L32.64 66.15L32.47 65.92L32.3 65.68L32.14 65.43L31.99 65.17L31.85 64.91L31.72 64.65L31.6 64.37L31.49 64.1L31.39 63.81L31.3 63.53L31.22 63.23L31.15 62.94L31.1 62.64L31.02 62.02L31.01 61.71L31 61.39L31 49.89L31.01 49.58L31.02 49.26L31.06 48.96L31.1 48.65L31.15 48.35L31.22 48.05L31.3 47.76L31.39 47.47L31.49 47.19L31.6 46.91L31.72 46.64L31.85 46.37L31.99 46.11L32.14 45.86L32.3 45.61L32.64 45.13L33.02 44.69L33.23 44.47L33.65 44.07L34.11 43.71L34.35 43.54L34.59 43.38L34.85 43.22L35.11 43.08L35.37 42.95L35.64 42.83L35.91 42.72L36.19 42.62L36.48 42.53L36.77 42.45L37.06 42.38L37.66 42.28L37.97 42.25L38.28 42.23L57.57 42.23L57.57 38.39L57.58 38.08L57.6 37.76L57.63 37.46L57.67 37.15L57.79 36.55L57.87 36.26L57.96 35.97L58.06 35.69L58.17 35.41L58.29 35.14L58.42 34.87L58.56 34.61L58.71 34.36L58.87 34.11L59.04 33.87L59.22 33.63L59.4 33.41L59.8 32.97L60.01 32.77L60.23 32.57L60.45 32.39L60.68 32.21L60.92 32.04L61.42 31.72L61.68 31.58L61.94 31.45L62.21 31.33L62.49 31.22L62.77 31.12L63.05 31.03L63.34 30.95L63.64 30.88L63.93 30.83L64.24 30.78L64.54 30.75L64.85 30.73L88.25 30.73L88.56 30.75L88.87 30.78ZM65.16 42.23L87.94 42.23L87.94 38.39L65.16 38.39L65.16 42.23Z" id="a3FDPRufNV"></path><path d="M88.87 30.78L89.47 30.88L89.76 30.95L90.05 31.03L90.34 31.12L90.62 31.22L90.89 31.33L91.16 31.45L91.43 31.58L91.68 31.72L91.94 31.88L92.18 32.04L92.42 32.21L92.88 32.57L93.1 32.77L93.31 32.97L93.51 33.19L93.89 33.63L94.07 33.87L94.23 34.11L94.39 34.36L94.54 34.61L94.68 34.87L94.81 35.14L94.93 35.41L95.05 35.69L95.14 35.97L95.23 36.26L95.31 36.55L95.38 36.85L95.43 37.15L95.48 37.46L95.51 37.76L95.53 38.08L95.53 42.23L114.83 42.23L115.13 42.25L115.44 42.28L116.04 42.38L116.34 42.45L116.62 42.53L116.91 42.62L117.19 42.72L117.47 42.83L117.73 42.95L118 43.08L118.26 43.22L118.51 43.38L118.75 43.54L118.99 43.71L119.23 43.89L119.45 44.07L119.67 44.27L119.88 44.47L120.28 44.91L120.46 45.13L120.64 45.37L120.81 45.61L120.97 45.86L121.12 46.11L121.26 46.37L121.39 46.64L121.51 46.91L121.62 47.19L121.72 47.47L121.81 47.76L121.88 48.05L121.95 48.35L122.01 48.65L122.05 48.96L122.08 49.26L122.1 49.58L122.1 61.71L122.08 62.02L122.05 62.33L122.01 62.64L121.95 62.94L121.88 63.23L121.81 63.53L121.72 63.81L121.62 64.1L121.51 64.37L121.39 64.65L121.26 64.91L121.12 65.17L120.97 65.43L120.81 65.68L120.64 65.92L120.28 66.38L120.08 66.6L119.88 66.81L119.67 67.02L119.23 67.4L118.99 67.58L118.75 67.75L118.51 67.91L118.26 68.06L118 68.2L117.74 68.33L117.47 68.46L117.19 68.57L116.91 68.67L116.63 68.76L116.34 68.84L115.74 68.96L115.44 69L115.13 69.03L114.83 69.05L114.51 69.06L84.14 69.06L84.14 66.99L84.12 66.83L84.11 66.76L84.09 66.68L84.05 66.54L84.02 66.47L84 66.4L83.97 66.33L83.93 66.26L83.9 66.2L83.86 66.13L83.78 66.01L83.73 65.95L83.69 65.9L83.64 65.84L83.54 65.74L83.48 65.69L83.43 65.64L83.37 65.6L83.31 65.55L83.25 65.51L83.18 65.48L83.12 65.44L83.05 65.41L82.99 65.38L82.85 65.32L82.78 65.3L82.7 65.28L82.63 65.27L82.55 65.25L82.48 65.24L82.4 65.23L70.7 65.23L70.63 65.24L70.55 65.25L70.48 65.27L70.4 65.28L70.33 65.3L70.26 65.32L70.05 65.41L69.99 65.44L69.92 65.48L69.86 65.51L69.8 65.55L69.74 65.6L69.68 65.64L69.62 65.69L69.47 65.84L69.42 65.9L69.37 65.95L69.33 66.01L69.28 66.07L69.24 66.13L69.21 66.2L69.17 66.26L69.08 66.47L69.06 66.54L69.03 66.61L69.02 66.68L69 66.76L68.98 66.83L68.97 66.91L68.97 66.99L68.96 67.06L68.96 69.06L38.59 69.06L38.28 69.05L37.97 69.03L37.66 69L37.36 68.96L37.06 68.9L36.77 68.84L36.48 68.76L36.19 68.67L35.91 68.57L35.64 68.46L35.37 68.33L35.11 68.2L34.85 68.06L34.59 67.91L34.35 67.75L34.11 67.58L33.88 67.4L33.65 67.21L33.44 67.02L33.02 66.6L32.83 66.38L32.64 66.15L32.47 65.92L32.3 65.68L32.14 65.43L31.99 65.17L31.85 64.91L31.72 64.65L31.6 64.37L31.49 64.1L31.39 63.81L31.3 63.53L31.22 63.23L31.15 62.94L31.1 62.64L31.02 62.02L31.01 61.71L31 61.39L31 49.89L31.01 49.58L31.02 49.26L31.06 48.96L31.1 48.65L31.15 48.35L31.22 48.05L31.3 47.76L31.39 47.47L31.49 47.19L31.6 46.91L31.72 46.64L31.85 46.37L31.99 46.11L32.14 45.86L32.3 45.61L32.64 45.13L33.02 44.69L33.23 44.47L33.65 44.07L34.11 43.71L34.35 43.54L34.59 43.38L34.85 43.22L35.11 43.08L35.37 42.95L35.64 42.83L35.91 42.72L36.19 42.62L36.48 42.53L36.77 42.45L37.06 42.38L37.66 42.28L37.97 42.25L38.28 42.23L57.57 42.23L57.57 38.39L57.58 38.08L57.6 37.76L57.63 37.46L57.67 37.15L57.79 36.55L57.87 36.26L57.96 35.97L58.06 35.69L58.17 35.41L58.29 35.14L58.42 34.87L58.56 34.61L58.71 34.36L58.87 34.11L59.04 33.87L59.22 33.63L59.4 33.41L59.8 32.97L60.01 32.77L60.23 32.57L60.45 32.39L60.68 32.21L60.92 32.04L61.42 31.72L61.68 31.58L61.94 31.45L62.21 31.33L62.49 31.22L62.77 31.12L63.05 31.03L63.34 30.95L63.64 30.88L63.93 30.83L64.24 30.78L64.54 30.75L64.85 30.73L88.25 30.73L88.56 30.75L88.87 30.78ZM65.16 42.23L87.94 42.23L87.94 38.39L65.16 38.39L65.16 42.23Z" id="dWBK0b9xd"></path><path d="M114.51 76.62C112.49 76.62 102.36 76.62 84.14 76.62C84.14 80.07 84.14 81.99 84.14 82.37C84.14 83.43 83.3 84.29 82.25 84.29C81.11 84.29 72 84.29 70.86 84.29C69.81 84.29 68.96 83.43 68.96 82.37C68.96 81.99 68.96 80.07 68.96 76.62C50.74 76.62 40.62 76.62 38.59 76.62C36.96 76.62 35.39 76.08 34.04 75.05C33.47 74.61 32.7 74.53 32.05 74.86C31.41 75.18 31 75.85 31 76.58C31 79.26 31 100.77 31 103.46C31 107.69 34.4 111.13 38.59 111.13C46.18 111.13 106.92 111.13 114.51 111.13C118.7 111.13 122.1 107.69 122.1 103.46C122.1 100.77 122.1 79.26 122.1 76.58C122.1 75.85 121.7 75.18 121.05 74.86C120.4 74.54 119.63 74.61 119.06 75.05C117.71 76.08 116.14 76.62 114.51 76.62Z" id="a5HohHU3m"></path><path d="M114.51 76.62C112.49 76.62 102.36 76.62 84.14 76.62C84.14 80.07 84.14 81.99 84.14 82.37C84.14 83.43 83.3 84.29 82.25 84.29C81.11 84.29 72 84.29 70.86 84.29C69.81 84.29 68.96 83.43 68.96 82.37C68.96 81.99 68.96 80.07 68.96 76.62C50.74 76.62 40.62 76.62 38.59 76.62C36.96 76.62 35.39 76.08 34.04 75.05C33.47 74.61 32.7 74.53 32.05 74.86C31.41 75.18 31 75.85 31 76.58C31 79.26 31 100.77 31 103.46C31 107.69 34.4 111.13 38.59 111.13C46.18 111.13 106.92 111.13 114.51 111.13C118.7 111.13 122.1 107.69 122.1 103.46C122.1 100.77 122.1 79.26 122.1 76.58C122.1 75.85 121.7 75.18 121.05 74.86C120.4 74.54 119.63 74.61 119.06 75.05C117.71 76.08 116.14 76.62 114.51 76.62Z" id="aQzriari"></path></defs><g><g><g><use xlink:href="#a1fhsRwahz" opacity="1" fill="#000000" fill-opacity="0"></use><g><use xlink:href="#a1fhsRwahz" opacity="1" fill-opacity="0" stroke="#4e68d2" stroke-width="1" stroke-opacity="1"></use></g></g><g><use xlink:href="#a6hE0Pxkgf" opacity="1" fill="#3d6cb0" fill-opacity="1"></use><g><use xlink:href="#a6hE0Pxkgf" opacity="1" fill-opacity="0" stroke="#000000" stroke-width="1" stroke-opacity="0"></use></g></g><g><use xlink:href="#a3FDPRufNV" opacity="1" fill="#ffffff" fill-opacity="1"></use><g><use xlink:href="#a3FDPRufNV" opacity="1" fill-opacity="0" stroke="#000000" stroke-width="1" stroke-opacity="0"></use></g></g><g><use xlink:href="#dWBK0b9xd" opacity="1" fill="#000000" fill-opacity="0"></use><g><use xlink:href="#dWBK0b9xd" opacity="1" fill-opacity="0" stroke="#000000" stroke-width="1" stroke-opacity="0"></use></g></g><g><use xlink:href="#a5HohHU3m" opacity="1" fill="#ffffff" fill-opacity="1"></use><g><use xlink:href="#a5HohHU3m" opacity="1" fill-opacity="0" stroke="#000000" stroke-width="1" stroke-opacity="0"></use></g></g><g><use xlink:href="#aQzriari" opacity="1" fill="#000000" fill-opacity="0"></use><g><use xlink:href="#aQzriari" opacity="1" fill-opacity="0" stroke="#000000" stroke-width="1" stroke-opacity="0"></use></g></g></g></g></svg>