<?xml version="1.0" encoding="UTF-8" standalone="no"?>
<!DOCTYPE svg PUBLIC "-//W3C//DTD SVG 1.1//EN" "http://www.w3.org/Graphics/SVG/1.1/DTD/svg11.dtd">
<svg version="1.1" xmlns="http://www.w3.org/2000/svg" xmlns:xlink="http://www.w3.org/1999/xlink" preserveAspectRatio="xMidYMid meet" viewBox="0 0 151 151" width="151" height="151"><defs><path d="M0.51 75.5C0.51 34.1 34.12 0.5 75.51 0.5C116.91 0.5 150.51 34.1 150.51 75.5C150.51 116.89 116.91 150.5 75.51 150.5C34.12 150.5 0.51 116.89 0.51 75.5Z" id="b3IQoNx528"></path><path d="M5.5 75.5C5.5 36.86 36.87 5.5 75.5 5.5C114.14 5.5 145.5 36.86 145.5 75.5C145.5 114.13 114.14 145.5 75.5 145.5C36.87 145.5 5.5 114.13 5.5 75.5Z" id="c3gOicI8u"></path><path d="M114.81 52.93C114.81 58.45 110.33 62.93 104.81 62.93C91.29 62.93 60.72 62.93 47.2 62.93C41.68 62.93 37.2 58.45 37.2 52.93C37.2 50.3 37.2 52.42 37.2 49.79C37.2 44.27 41.68 39.79 47.2 39.79C60.72 39.79 91.29 39.79 104.81 39.79C110.33 39.79 114.81 44.27 114.81 49.79C114.81 52.42 114.81 50.3 114.81 52.93Z" id="dceLUfJX"></path><path d="M114.81 52.93C114.81 58.45 110.33 62.93 104.81 62.93C91.29 62.93 60.72 62.93 47.2 62.93C41.68 62.93 37.2 58.45 37.2 52.93C37.2 50.3 37.2 52.42 37.2 49.79C37.2 44.27 41.68 39.79 47.2 39.79C60.72 39.79 91.29 39.79 104.81 39.79C110.33 39.79 114.81 44.27 114.81 49.79C114.81 52.42 114.81 50.3 114.81 52.93Z" id="bDVN8rm0J"></path><path d="M114.81 90.17C114.81 103.14 97.67 113.67 76.56 113.67C55.45 113.67 38.32 103.14 38.32 90.17C38.32 77.19 55.45 66.66 76.56 66.66C97.67 66.66 114.81 77.19 114.81 90.17Z" id="o2z1CWQ1sD"></path><path d="M114.81 90.17C114.81 103.14 97.67 113.67 76.56 113.67C55.45 113.67 38.32 103.14 38.32 90.17C38.32 77.19 55.45 66.66 76.56 66.66C97.67 66.66 114.81 77.19 114.81 90.17Z" id="a2hriXXLRw"></path><path d="M74.06 77C74.06 75.62 75.18 74.5 76.56 74.5C77.94 74.5 79.06 75.62 79.06 77C79.06 78.38 77.94 79.5 76.56 79.5C75.18 79.5 74.06 78.38 74.06 77Z" id="azqoBxjcP"></path><path d="M74.06 77C74.06 75.62 75.18 74.5 76.56 74.5C77.94 74.5 79.06 75.62 79.06 77C79.06 78.38 77.94 79.5 76.56 79.5C75.18 79.5 74.06 78.38 74.06 77Z" id="a6JCRMklC"></path><path d="M86.77 88.5C86.77 87.12 87.89 86 89.27 86C90.65 86 91.77 87.12 91.77 88.5C91.77 89.88 90.65 91 89.27 91C87.89 91 86.77 89.88 86.77 88.5Z" id="b21HoM3IjC"></path><path d="M86.77 88.5C86.77 87.12 87.89 86 89.27 86C90.65 86 91.77 87.12 91.77 88.5C91.77 89.88 90.65 91 89.27 91C87.89 91 86.77 89.88 86.77 88.5Z" id="c4PxtgCEEI"></path><path d="M83.06 80.5C83.06 79.12 84.18 78 85.56 78C86.94 78 88.06 79.12 88.06 80.5C88.06 81.88 86.94 83 85.56 83C84.18 83 83.06 81.88 83.06 80.5Z" id="g4JIYCTmh"></path><path d="M83.06 80.5C83.06 79.12 84.18 78 85.56 78C86.94 78 88.06 79.12 88.06 80.5C88.06 81.88 86.94 83 85.56 83C84.18 83 83.06 81.88 83.06 80.5Z" id="a9pd6vY52"></path><path d="M83.77 96.5C83.77 95.12 84.89 94 86.27 94C87.65 94 88.77 95.12 88.77 96.5C88.77 97.88 87.65 99 86.27 99C84.89 99 83.77 97.88 83.77 96.5Z" id="b4ih9zNKa1"></path><path d="M83.77 96.5C83.77 95.12 84.89 94 86.27 94C87.65 94 88.77 95.12 88.77 96.5C88.77 97.88 87.65 99 86.27 99C84.89 99 83.77 97.88 83.77 96.5Z" id="b5Wl33jQyS"></path><path d="M64.77 79.5C64.77 78.12 65.89 77 67.27 77C68.65 77 69.77 78.12 69.77 79.5C69.77 80.88 68.65 82 67.27 82C65.89 82 64.77 80.88 64.77 79.5Z" id="c4wCGAJ9P"></path><path d="M64.77 79.5C64.77 78.12 65.89 77 67.27 77C68.65 77 69.77 78.12 69.77 79.5C69.77 80.88 68.65 82 67.27 82C65.89 82 64.77 80.88 64.77 79.5Z" id="cXbY9rjt8"></path><path d="M64.75 88.87C64.75 83.15 69.79 78.5 76 78.5C82.21 78.5 87.25 83.15 87.25 88.87C87.25 94.59 82.21 99.24 76 99.24C69.79 99.24 64.75 94.59 64.75 88.87Z" id="dhxIyZq4i"></path><path d="M64.75 88.87C64.75 83.15 69.79 78.5 76 78.5C82.21 78.5 87.25 83.15 87.25 88.87C87.25 94.59 82.21 99.24 76 99.24C69.79 99.24 64.75 94.59 64.75 88.87Z" id="jB3So8L4j"></path><path d="M74.77 100.5C74.77 99.12 75.89 98 77.27 98C78.65 98 79.77 99.12 79.77 100.5C79.77 101.88 78.65 103 77.27 103C75.89 103 74.77 101.88 74.77 100.5Z" id="b2EWIEY4ax"></path><path d="M74.77 100.5C74.77 99.12 75.89 98 77.27 98C78.65 98 79.77 99.12 79.77 100.5C79.77 101.88 78.65 103 77.27 103C75.89 103 74.77 101.88 74.77 100.5Z" id="b2ujvQRMMK"></path><path d="M65.77 98.5C65.77 97.12 66.89 96 68.27 96C69.65 96 70.77 97.12 70.77 98.5C70.77 99.88 69.65 101 68.27 101C66.89 101 65.77 99.88 65.77 98.5Z" id="b1gvS0M5Z"></path><path d="M65.77 98.5C65.77 97.12 66.89 96 68.27 96C69.65 96 70.77 97.12 70.77 98.5C70.77 99.88 69.65 101 68.27 101C66.89 101 65.77 99.88 65.77 98.5Z" id="agE5X7AFM"></path><path d="M60.77 88.5C60.77 87.12 61.89 86 63.27 86C64.65 86 65.77 87.12 65.77 88.5C65.77 89.88 64.65 91 63.27 91C61.89 91 60.77 89.88 60.77 88.5Z" id="ctmq5KldX"></path><path d="M60.77 88.5C60.77 87.12 61.89 86 63.27 86C64.65 86 65.77 87.12 65.77 88.5C65.77 89.88 64.65 91 63.27 91C61.89 91 60.77 89.88 60.77 88.5Z" id="b3ggIBVAuc"></path></defs><g><g><g><use xlink:href="#b3IQoNx528" opacity="1" fill="#000000" fill-opacity="0"></use><g><use xlink:href="#b3IQoNx528" opacity="1" fill-opacity="0" stroke="#4e68d2" stroke-width="1" stroke-opacity="1"></use></g></g><g><use xlink:href="#c3gOicI8u" opacity="1" fill="#3d6cb0" fill-opacity="1"></use><g><use xlink:href="#c3gOicI8u" opacity="1" fill-opacity="0" stroke="#000000" stroke-width="1" stroke-opacity="0"></use></g></g><g><use xlink:href="#dceLUfJX" opacity="1" fill="#ffffff" fill-opacity="1"></use><g><use xlink:href="#dceLUfJX" opacity="1" fill-opacity="0" stroke="#000000" stroke-width="1" stroke-opacity="0"></use></g></g><g><use xlink:href="#bDVN8rm0J" opacity="1" fill="#000000" fill-opacity="0"></use><g><use xlink:href="#bDVN8rm0J" opacity="1" fill-opacity="0" stroke="#000000" stroke-width="1" stroke-opacity="0"></use></g></g><g><use xlink:href="#o2z1CWQ1sD" opacity="1" fill="#ffffff" fill-opacity="1"></use><g><use xlink:href="#o2z1CWQ1sD" opacity="1" fill-opacity="0" stroke="#000000" stroke-width="1" stroke-opacity="0"></use></g></g><g><use xlink:href="#a2hriXXLRw" opacity="1" fill="#000000" fill-opacity="0"></use><g><use xlink:href="#a2hriXXLRw" opacity="1" fill-opacity="0" stroke="#000000" stroke-width="1" stroke-opacity="0"></use></g></g><g><use xlink:href="#azqoBxjcP" opacity="1" fill="#3d6cb0" fill-opacity="1"></use><g><use xlink:href="#azqoBxjcP" opacity="1" fill-opacity="0" stroke="#000000" stroke-width="1" stroke-opacity="0"></use></g></g><g><use xlink:href="#a6JCRMklC" opacity="1" fill="#000000" fill-opacity="0"></use><g><use xlink:href="#a6JCRMklC" opacity="1" fill-opacity="0" stroke="#000000" stroke-width="1" stroke-opacity="0"></use></g></g><g><use xlink:href="#b21HoM3IjC" opacity="1" fill="#3d6cb0" fill-opacity="1"></use><g><use xlink:href="#b21HoM3IjC" opacity="1" fill-opacity="0" stroke="#000000" stroke-width="1" stroke-opacity="0"></use></g></g><g><use xlink:href="#c4PxtgCEEI" opacity="1" fill="#000000" fill-opacity="0"></use><g><use xlink:href="#c4PxtgCEEI" opacity="1" fill-opacity="0" stroke="#000000" stroke-width="1" stroke-opacity="0"></use></g></g><g><use xlink:href="#g4JIYCTmh" opacity="1" fill="#3d6cb0" fill-opacity="1"></use><g><use xlink:href="#g4JIYCTmh" opacity="1" fill-opacity="0" stroke="#000000" stroke-width="1" stroke-opacity="0"></use></g></g><g><use xlink:href="#a9pd6vY52" opacity="1" fill="#000000" fill-opacity="0"></use><g><use xlink:href="#a9pd6vY52" opacity="1" fill-opacity="0" stroke="#000000" stroke-width="1" stroke-opacity="0"></use></g></g><g><use xlink:href="#b4ih9zNKa1" opacity="1" fill="#3d6cb0" fill-opacity="1"></use><g><use xlink:href="#b4ih9zNKa1" opacity="1" fill-opacity="0" stroke="#000000" stroke-width="1" stroke-opacity="0"></use></g></g><g><use xlink:href="#b5Wl33jQyS" opacity="1" fill="#000000" fill-opacity="0"></use><g><use xlink:href="#b5Wl33jQyS" opacity="1" fill-opacity="0" stroke="#000000" stroke-width="1" stroke-opacity="0"></use></g></g><g><use xlink:href="#c4wCGAJ9P" opacity="1" fill="#3d6cb0" fill-opacity="1"></use><g><use xlink:href="#c4wCGAJ9P" opacity="1" fill-opacity="0" stroke="#000000" stroke-width="1" stroke-opacity="0"></use></g></g><g><use xlink:href="#cXbY9rjt8" opacity="1" fill="#000000" fill-opacity="0"></use><g><use xlink:href="#cXbY9rjt8" opacity="1" fill-opacity="0" stroke="#000000" stroke-width="1" stroke-opacity="0"></use></g></g><g><use xlink:href="#dhxIyZq4i" opacity="1" fill="#000000" fill-opacity="0"></use><g><use xlink:href="#dhxIyZq4i" opacity="1" fill-opacity="0" stroke="#000000" stroke-width="1" stroke-opacity="0"></use></g></g><g><use xlink:href="#jB3So8L4j" opacity="1" fill="#000000" fill-opacity="0"></use><g><use xlink:href="#jB3So8L4j" opacity="1" fill-opacity="0" stroke="#3d6cb0" stroke-width="2" stroke-opacity="1"></use></g></g><g><use xlink:href="#b2EWIEY4ax" opacity="1" fill="#3d6cb0" fill-opacity="1"></use><g><use xlink:href="#b2EWIEY4ax" opacity="1" fill-opacity="0" stroke="#000000" stroke-width="1" stroke-opacity="0"></use></g></g><g><use xlink:href="#b2ujvQRMMK" opacity="1" fill="#000000" fill-opacity="0"></use><g><use xlink:href="#b2ujvQRMMK" opacity="1" fill-opacity="0" stroke="#000000" stroke-width="1" stroke-opacity="0"></use></g></g><g><use xlink:href="#b1gvS0M5Z" opacity="1" fill="#3d6cb0" fill-opacity="1"></use><g><use xlink:href="#b1gvS0M5Z" opacity="1" fill-opacity="0" stroke="#000000" stroke-width="1" stroke-opacity="0"></use></g></g><g><use xlink:href="#agE5X7AFM" opacity="1" fill="#000000" fill-opacity="0"></use><g><use xlink:href="#agE5X7AFM" opacity="1" fill-opacity="0" stroke="#000000" stroke-width="1" stroke-opacity="0"></use></g></g><g><use xlink:href="#ctmq5KldX" opacity="1" fill="#3d6cb0" fill-opacity="1"></use><g><use xlink:href="#ctmq5KldX" opacity="1" fill-opacity="0" stroke="#000000" stroke-width="1" stroke-opacity="0"></use></g></g><g><use xlink:href="#b3ggIBVAuc" opacity="1" fill="#000000" fill-opacity="0"></use><g><use xlink:href="#b3ggIBVAuc" opacity="1" fill-opacity="0" stroke="#000000" stroke-width="1" stroke-opacity="0"></use></g></g></g></g></svg>