<?xml version="1.0" encoding="UTF-8" standalone="no"?>
<!DOCTYPE svg PUBLIC "-//W3C//DTD SVG 1.1//EN" "http://www.w3.org/Graphics/SVG/1.1/DTD/svg11.dtd">
<svg version="1.1" xmlns="http://www.w3.org/2000/svg" xmlns:xlink="http://www.w3.org/1999/xlink" preserveAspectRatio="xMidYMid meet" viewBox="0 0 151 151" width="151" height="151"><defs><path d="M0.5 75.5C0.5 34.1 34.11 0.5 75.5 0.5C116.89 0.5 150.5 34.1 150.5 75.5C150.5 116.89 116.89 150.5 75.5 150.5C34.11 150.5 0.5 116.89 0.5 75.5Z" id="bm0GLV0w"></path><path d="M5.5 75.5C5.5 36.86 36.87 5.5 75.5 5.5C114.13 5.5 145.5 36.86 145.5 75.5C145.5 114.13 114.13 145.5 75.5 145.5C36.87 145.5 5.5 114.13 5.5 75.5Z" id="a5xbeudiBy"></path><path d="M101 83.54L106.9 119.72L76 102.64L45.1 119.72L51 83.54L26 57.92L60.55 52.64L76 19.72L91.45 52.64L126 57.92L101 83.54Z" id="a41yYWg38x"></path><path d="M101 83.54L106.9 119.72L76 102.64L45.1 119.72L51 83.54L26 57.92L60.55 52.64L76 19.72L91.45 52.64L126 57.92L101 83.54Z" id="cLWeyNDWV"></path></defs><g><g><g><use xlink:href="#bm0GLV0w" opacity="1" fill="#000000" fill-opacity="0"></use><g><use xlink:href="#bm0GLV0w" opacity="1" fill-opacity="0" stroke="#4e68d2" stroke-width="1" stroke-opacity="1"></use></g></g><g><use xlink:href="#a5xbeudiBy" opacity="1" fill="#3d6cb0" fill-opacity="1"></use><g><use xlink:href="#a5xbeudiBy" opacity="1" fill-opacity="0" stroke="#000000" stroke-width="1" stroke-opacity="0"></use></g></g><g><use xlink:href="#a41yYWg38x" opacity="1" fill="#fbfbfb" fill-opacity="1"></use><g><use xlink:href="#a41yYWg38x" opacity="1" fill-opacity="0" stroke="#000000" stroke-width="1" stroke-opacity="0"></use></g></g><g><use xlink:href="#cLWeyNDWV" opacity="1" fill="#000000" fill-opacity="0"></use><g><use xlink:href="#cLWeyNDWV" opacity="1" fill-opacity="0" stroke="#000000" stroke-width="1" stroke-opacity="0"></use></g></g></g></g></svg>