<?xml version="1.0" encoding="UTF-8" standalone="no"?>
<!DOCTYPE svg PUBLIC "-//W3C//DTD SVG 1.1//EN" "http://www.w3.org/Graphics/SVG/1.1/DTD/svg11.dtd">
<svg version="1.1" xmlns="http://www.w3.org/2000/svg" xmlns:xlink="http://www.w3.org/1999/xlink" preserveAspectRatio="xMidYMid meet" viewBox="0 0 151 151" width="151" height="151"><defs><path d="M0.5 75.5C0.5 34.1 34.11 0.5 75.5 0.5C116.89 0.5 150.5 34.1 150.5 75.5C150.5 116.89 116.89 150.5 75.5 150.5C34.11 150.5 0.5 116.89 0.5 75.5Z" id="a1cYfsF8nC"></path><path d="M5.5 75.5C5.5 36.86 36.87 5.5 75.5 5.5C114.13 5.5 145.5 36.86 145.5 75.5C145.5 114.13 114.13 145.5 75.5 145.5C36.87 145.5 5.5 114.13 5.5 75.5Z" id="i2HZRtRodx"></path><path d="M56 50.95C56 39.92 64.96 30.95 76 30.95C87.04 30.95 96 39.92 96 50.95C96 61.99 87.04 70.95 76 70.95C64.96 70.95 56 61.99 56 50.95Z" id="c3RvdjBrjZ"></path><path d="M56 50.95C56 39.92 64.96 30.95 76 30.95C87.04 30.95 96 39.92 96 50.95C96 61.99 87.04 70.95 76 70.95C64.96 70.95 56 61.99 56 50.95Z" id="b572HM2Y8A"></path><path d="M35.56 96.97C35.56 85.39 53.68 76 76 76C98.32 76 116.44 85.39 116.44 96.97C116.44 108.54 98.32 117.94 76 117.94C53.68 117.94 35.56 108.54 35.56 96.97Z" id="d2oS6Ne7vC"></path><path d="M35.56 96.97C35.56 85.39 53.68 76 76 76C98.32 76 116.44 85.39 116.44 96.97C116.44 108.54 98.32 117.94 76 117.94C53.68 117.94 35.56 108.54 35.56 96.97Z" id="fnbiqxWlI"></path></defs><g><g><g><use xlink:href="#a1cYfsF8nC" opacity="1" fill="#000000" fill-opacity="0"></use><g><use xlink:href="#a1cYfsF8nC" opacity="1" fill-opacity="0" stroke="#4e68d2" stroke-width="1" stroke-opacity="1"></use></g></g><g><use xlink:href="#i2HZRtRodx" opacity="1" fill="#3d6cb0" fill-opacity="1"></use><g><use xlink:href="#i2HZRtRodx" opacity="1" fill-opacity="0" stroke="#000000" stroke-width="1" stroke-opacity="0"></use></g></g><g><use xlink:href="#c3RvdjBrjZ" opacity="1" fill="#ffffff" fill-opacity="1"></use><g><use xlink:href="#c3RvdjBrjZ" opacity="1" fill-opacity="0" stroke="#000000" stroke-width="1" stroke-opacity="0"></use></g></g><g><use xlink:href="#b572HM2Y8A" opacity="1" fill="#000000" fill-opacity="0"></use><g><use xlink:href="#b572HM2Y8A" opacity="1" fill-opacity="0" stroke="#000000" stroke-width="1" stroke-opacity="0"></use></g></g><g><use xlink:href="#d2oS6Ne7vC" opacity="1" fill="#fefefe" fill-opacity="1"></use><g><use xlink:href="#d2oS6Ne7vC" opacity="1" fill-opacity="0" stroke="#000000" stroke-width="1" stroke-opacity="0"></use></g></g><g><use xlink:href="#fnbiqxWlI" opacity="1" fill="#000000" fill-opacity="0"></use><g><use xlink:href="#fnbiqxWlI" opacity="1" fill-opacity="0" stroke="#000000" stroke-width="1" stroke-opacity="0"></use></g></g></g></g></svg>