<?xml version="1.0" encoding="UTF-8" standalone="no"?>
<!DOCTYPE svg PUBLIC "-//W3C//DTD SVG 1.1//EN" "http://www.w3.org/Graphics/SVG/1.1/DTD/svg11.dtd">
<svg version="1.1" xmlns="http://www.w3.org/2000/svg" xmlns:xlink="http://www.w3.org/1999/xlink" preserveAspectRatio="xMidYMid meet" viewBox="0 0 151 151" width="151" height="151"><defs><path d="M1 76C1 34.6 34.61 1 76 1C117.4 1 151 34.6 151 76C151 117.39 117.4 151 76 151C34.61 151 1 117.39 1 76Z" id="a5vmVtS41r"></path><path d="M6.22 75.53C6.22 37.1 37.59 5.9 76.22 5.9C114.86 5.9 146.22 37.1 146.22 75.53C146.22 113.96 114.86 145.16 76.22 145.16C37.59 145.16 6.22 113.96 6.22 75.53Z" id="cEMQEuW8P"></path><path d="M79.69 25.9L81.09 26.05L82.47 26.25L83.83 26.5L85.18 26.81L86.5 27.17L87.81 27.58L89.09 28.04L90.35 28.54L91.58 29.1L92.79 29.7L93.97 30.35L95.12 31.05L96.24 31.78L97.34 32.56L98.4 33.38L99.43 34.23L100.42 35.13L101.38 36.06L102.31 37.03L103.2 38.04L104.05 39.08L104.86 40.15L105.63 41.25L106.36 42.39L107.04 43.55L107.68 44.74L108.28 45.96L108.83 47.21L109.34 48.48L109.79 49.77L110.2 51.09L110.56 52.43L110.86 53.78L111.11 55.16L111.31 56.56L111.45 57.97L111.54 59.4L111.57 60.84L111.56 61.62L111.53 62.4L111.49 63.17L111.43 63.94L111.36 64.71L111.26 65.48L111.15 66.24L111.03 66.99L110.89 67.75L110.73 68.5L110.56 69.24L110.37 69.98L110.16 70.71L109.94 71.44L109.71 72.17L109.46 72.88L109.19 73.6L108.91 74.3L108.61 75L108.3 75.69L107.97 76.38L107.63 77.05L107.27 77.72L106.9 78.39L106.52 79.04L106.12 79.69L105.71 80.33L105.28 80.95L104.84 81.58L104.38 82.19L103.91 82.79L103.43 83.38L102.93 83.96L102.42 84.54L101.9 85.1L101.36 85.65L100.81 86.19L100.25 86.72L99.67 87.24L99.08 87.75L98.86 87.99L98.64 88.24L98.43 88.49L98.03 89.01L97.84 89.27L97.48 89.81L97.31 90.09L97.14 90.36L96.99 90.64L96.83 90.92L96.69 91.21L96.55 91.49L96.41 91.78L96.28 92.07L96.16 92.36L96.04 92.65L95.71 93.52L95.62 93.81L95.52 94.1L95.43 94.38L95.27 94.96L95.19 95.24L95.12 95.53L95.06 95.81L94.99 96.09L94.93 96.36L94.88 96.64L94.82 96.91L94.78 97.18L94.73 97.44L94.69 97.7L94.65 97.96L94.62 98.21L94.58 98.46L94.55 98.7L94.55 98.76L94.54 98.82L94.52 98.87L94.5 98.99L94.46 99.09L94.44 99.15L94.41 99.2L94.39 99.25L94.33 99.35L94.3 99.39L94.27 99.44L94.24 99.48L94.2 99.53L94.16 99.57L94.13 99.61L94.05 99.69L94 99.72L93.96 99.76L93.92 99.79L93.82 99.85L93.78 99.88L93.73 99.91L93.68 99.93L93.63 99.96L93.57 99.98L93.52 100L93.47 100.01L93.41 100.03L93.36 100.04L93.3 100.06L93.25 100.06L93.19 100.07L93.13 100.08L93.01 100.08L60.67 100.07L60.55 100.07L60.49 100.06L60.44 100.06L60.38 100.05L60.32 100.03L60.27 100.02L60.21 100.01L60.16 99.99L60.06 99.95L60.01 99.92L59.96 99.9L59.81 99.81L59.77 99.78L59.72 99.75L59.68 99.71L59.64 99.68L59.56 99.6L59.48 99.52L59.45 99.47L59.41 99.43L59.38 99.38L59.35 99.34L59.32 99.29L59.29 99.24L59.25 99.14L59.22 99.08L59.2 99.03L59.19 98.98L59.17 98.92L59.15 98.86L59.14 98.81L59.12 98.69L59.09 98.45L59.03 97.95L58.95 97.43L58.9 97.17L58.8 96.63L58.74 96.36L58.68 96.08L58.62 95.8L58.55 95.52L58.48 95.23L58.4 94.95L58.24 94.37L58.15 94.08L57.95 93.5L57.73 92.92L57.62 92.62L57.5 92.33L57.37 92.04L57.24 91.75L57.1 91.46L56.95 91.17L56.8 90.88L56.64 90.6L56.48 90.31L56.31 90.03L56.13 89.75L55.95 89.48L55.76 89.2L55.56 88.93L55.36 88.67L55.15 88.4L54.93 88.14L54.7 87.89L54.47 87.63L54.46 87.63L54.46 87.62L53.87 87.11L53.31 86.59L52.75 86.06L52.21 85.52L51.67 84.97L51.16 84.41L50.65 83.84L50.16 83.26L49.68 82.67L49.22 82.07L48.77 81.46L48.33 80.84L47.91 80.21L47.5 79.58L47.11 78.93L46.73 78.28L46.36 77.62L46.01 76.96L45.67 76.28L45.35 75.6L45.04 74.91L44.75 74.22L44.47 73.52L44.21 72.81L43.96 72.1L43.72 71.38L43.3 69.92L43.12 69.19L42.95 68.45L42.79 67.7L42.65 66.95L42.53 66.2L42.42 65.45L42.33 64.69L42.25 63.92L42.2 63.16L42.15 62.39L42.13 61.61L42.12 60.84L42.15 59.4L42.24 57.97L42.38 56.56L42.58 55.16L42.83 53.78L43.13 52.43L43.49 51.09L43.9 49.77L44.35 48.48L44.86 47.21L45.41 45.96L46 44.74L46.65 43.55L47.33 42.39L48.06 41.25L48.83 40.15L49.64 39.08L50.49 38.04L51.38 37.03L52.31 36.06L53.27 35.13L54.26 34.23L55.29 33.38L56.35 32.56L57.45 31.78L58.57 31.05L59.72 30.35L60.9 29.7L62.11 29.1L63.34 28.54L64.6 28.04L65.88 27.58L67.19 27.17L68.51 26.81L69.86 26.5L71.22 26.25L72.6 26.05L74 25.9L75.42 25.82L76.85 25.79L78.27 25.82L79.69 25.9ZM74.26 29.03L72.98 29.16L71.72 29.34L70.48 29.57L69.26 29.85L68.05 30.18L66.86 30.55L65.7 30.97L64.55 31.43L63.43 31.94L62.33 32.49L61.25 33.08L60.2 33.71L59.18 34.38L58.18 35.09L57.22 35.83L56.28 36.61L55.37 37.43L54.5 38.28L53.66 39.16L52.85 40.08L52.08 41.02L51.34 42L50.64 43.01L49.97 44.04L49.35 45.1L48.76 46.18L48.22 47.29L47.72 48.43L47.26 49.58L46.84 50.76L46.47 51.96L46.15 53.18L45.87 54.41L45.64 55.67L45.47 56.94L45.34 58.23L45.26 59.53L45.23 60.84L45.24 61.55L45.26 62.26L45.3 62.96L45.35 63.66L45.42 64.36L45.51 65.06L45.61 65.75L45.72 66.44L45.85 67.13L45.99 67.81L46.15 68.48L46.32 69.16L46.51 69.82L46.71 70.49L46.92 71.15L47.15 71.8L47.39 72.45L47.65 73.09L47.92 73.73L48.2 74.35L48.5 74.98L48.81 75.6L49.14 76.21L49.47 76.81L49.82 77.4L50.19 77.99L50.57 78.57L50.95 79.15L51.36 79.71L51.77 80.27L52.2 80.82L52.64 81.36L53.09 81.89L53.56 82.41L54.03 82.92L54.52 83.42L55.02 83.92L55.54 84.4L56.06 84.87L56.6 85.34L56.62 85.35L56.63 85.37L56.64 85.38L56.65 85.38L56.66 85.39L56.66 85.4L56.67 85.4L56.68 85.41L56.68 85.42L56.69 85.42L56.7 85.43L56.7 85.44L56.71 85.44L56.73 85.46L56.74 85.48L56.75 85.49L56.77 85.5L56.77 85.51L56.8 85.54L56.81 85.56L56.82 85.57L56.83 85.59L56.84 85.6L57.08 85.86L57.54 86.4L57.76 86.67L57.97 86.94L58.17 87.22L58.37 87.49L58.56 87.78L58.75 88.06L58.93 88.34L59.11 88.63L59.27 88.92L59.44 89.21L59.74 89.79L59.89 90.08L60.03 90.38L60.17 90.67L60.3 90.97L60.42 91.26L60.54 91.56L60.66 91.85L60.77 92.15L60.88 92.44L60.98 92.73L61.07 93.03L61.17 93.32L61.25 93.61L61.34 93.9L61.42 94.18L61.49 94.47L61.57 94.75L61.64 95.03L61.76 95.59L61.82 95.87L61.87 96.14L61.92 96.41L61.97 96.67L62.02 96.94L91.67 96.95L91.71 96.68L91.81 96.14L91.87 95.86L91.92 95.58L91.99 95.3L92.05 95.02L92.19 94.44L92.35 93.86L92.44 93.57L92.53 93.27L92.63 92.97L92.72 92.68L93.05 91.78L93.29 91.18L93.42 90.89L93.55 90.59L93.69 90.29L93.99 89.69L94.14 89.4L94.3 89.1L94.64 88.52L94.82 88.23L95.2 87.65L95.6 87.09L95.81 86.81L96.03 86.53L96.49 85.99L96.73 85.72L96.97 85.46L97.52 84.99L98.05 84.51L98.57 84.02L99.08 83.52L99.57 83.01L100.06 82.49L100.53 81.96L100.99 81.42L101.43 80.88L101.87 80.33L102.29 79.76L102.69 79.19L103.09 78.62L103.47 78.03L103.84 77.44L104.19 76.84L104.53 76.23L104.86 75.62L105.17 75L105.47 74.38L105.76 73.74L106.03 73.11L106.29 72.46L106.53 71.81L106.76 71.16L106.98 70.5L107.18 69.83L107.37 69.16L107.54 68.49L107.7 67.81L107.84 67.13L107.97 66.44L108.09 65.75L108.19 65.06L108.27 64.36L108.34 63.66L108.39 62.96L108.43 62.25L108.46 61.55L108.46 60.84L108.44 59.52L108.36 58.22L108.23 56.94L108.05 55.67L107.82 54.41L107.54 53.18L107.22 51.96L106.85 50.76L106.43 49.58L105.97 48.43L105.47 47.29L104.93 46.18L104.34 45.1L103.72 44.04L103.06 43.01L102.35 42L101.62 41.02L100.84 40.08L100.03 39.16L99.19 38.28L98.32 37.43L97.41 36.61L96.47 35.83L95.51 35.09L94.51 34.38L93.49 33.71L92.44 33.08L91.36 32.49L90.26 31.94L89.14 31.43L88 30.97L86.83 30.55L85.64 30.18L84.43 29.85L83.21 29.57L81.97 29.34L80.71 29.16L79.43 29.03L78.15 28.95L76.85 28.92L75.54 28.95L74.26 29.03Z" id="a6VWDQvlQ"></path><path d="M79.69 25.9L81.09 26.05L82.47 26.25L83.83 26.5L85.18 26.81L86.5 27.17L87.81 27.58L89.09 28.04L90.35 28.54L91.58 29.1L92.79 29.7L93.97 30.35L95.12 31.05L96.24 31.78L97.34 32.56L98.4 33.38L99.43 34.23L100.42 35.13L101.38 36.06L102.31 37.03L103.2 38.04L104.05 39.08L104.86 40.15L105.63 41.25L106.36 42.39L107.04 43.55L107.68 44.74L108.28 45.96L108.83 47.21L109.34 48.48L109.79 49.77L110.2 51.09L110.56 52.43L110.86 53.78L111.11 55.16L111.31 56.56L111.45 57.97L111.54 59.4L111.57 60.84L111.56 61.62L111.53 62.4L111.49 63.17L111.43 63.94L111.36 64.71L111.26 65.48L111.15 66.24L111.03 66.99L110.89 67.75L110.73 68.5L110.56 69.24L110.37 69.98L110.16 70.71L109.94 71.44L109.71 72.17L109.46 72.88L109.19 73.6L108.91 74.3L108.61 75L108.3 75.69L107.97 76.38L107.63 77.05L107.27 77.72L106.9 78.39L106.52 79.04L106.12 79.69L105.71 80.33L105.28 80.95L104.84 81.58L104.38 82.19L103.91 82.79L103.43 83.38L102.93 83.96L102.42 84.54L101.9 85.1L101.36 85.65L100.81 86.19L100.25 86.72L99.67 87.24L99.08 87.75L98.86 87.99L98.64 88.24L98.43 88.49L98.03 89.01L97.84 89.27L97.48 89.81L97.31 90.09L97.14 90.36L96.99 90.64L96.83 90.92L96.69 91.21L96.55 91.49L96.41 91.78L96.28 92.07L96.16 92.36L96.04 92.65L95.71 93.52L95.62 93.81L95.52 94.1L95.43 94.38L95.27 94.96L95.19 95.24L95.12 95.53L95.06 95.81L94.99 96.09L94.93 96.36L94.88 96.64L94.82 96.91L94.78 97.18L94.73 97.44L94.69 97.7L94.65 97.96L94.62 98.21L94.58 98.46L94.55 98.7L94.55 98.76L94.54 98.82L94.52 98.87L94.5 98.99L94.46 99.09L94.44 99.15L94.41 99.2L94.39 99.25L94.33 99.35L94.3 99.39L94.27 99.44L94.24 99.48L94.2 99.53L94.16 99.57L94.13 99.61L94.05 99.69L94 99.72L93.96 99.76L93.92 99.79L93.82 99.85L93.78 99.88L93.73 99.91L93.68 99.93L93.63 99.96L93.57 99.98L93.52 100L93.47 100.01L93.41 100.03L93.36 100.04L93.3 100.06L93.25 100.06L93.19 100.07L93.13 100.08L93.01 100.08L60.67 100.07L60.55 100.07L60.49 100.06L60.44 100.06L60.38 100.05L60.32 100.03L60.27 100.02L60.21 100.01L60.16 99.99L60.06 99.95L60.01 99.92L59.96 99.9L59.81 99.81L59.77 99.78L59.72 99.75L59.68 99.71L59.64 99.68L59.56 99.6L59.48 99.52L59.45 99.47L59.41 99.43L59.38 99.38L59.35 99.34L59.32 99.29L59.29 99.24L59.25 99.14L59.22 99.08L59.2 99.03L59.19 98.98L59.17 98.92L59.15 98.86L59.14 98.81L59.12 98.69L59.09 98.45L59.03 97.95L58.95 97.43L58.9 97.17L58.8 96.63L58.74 96.36L58.68 96.08L58.62 95.8L58.55 95.52L58.48 95.23L58.4 94.95L58.24 94.37L58.15 94.08L57.95 93.5L57.73 92.92L57.62 92.62L57.5 92.33L57.37 92.04L57.24 91.75L57.1 91.46L56.95 91.17L56.8 90.88L56.64 90.6L56.48 90.31L56.31 90.03L56.13 89.75L55.95 89.48L55.76 89.2L55.56 88.93L55.36 88.67L55.15 88.4L54.93 88.14L54.7 87.89L54.47 87.63L54.46 87.63L54.46 87.62L53.87 87.11L53.31 86.59L52.75 86.06L52.21 85.52L51.67 84.97L51.16 84.41L50.65 83.84L50.16 83.26L49.68 82.67L49.22 82.07L48.77 81.46L48.33 80.84L47.91 80.21L47.5 79.58L47.11 78.93L46.73 78.28L46.36 77.62L46.01 76.96L45.67 76.28L45.35 75.6L45.04 74.91L44.75 74.22L44.47 73.52L44.21 72.81L43.96 72.1L43.72 71.38L43.3 69.92L43.12 69.19L42.95 68.45L42.79 67.7L42.65 66.95L42.53 66.2L42.42 65.45L42.33 64.69L42.25 63.92L42.2 63.16L42.15 62.39L42.13 61.61L42.12 60.84L42.15 59.4L42.24 57.97L42.38 56.56L42.58 55.16L42.83 53.78L43.13 52.43L43.49 51.09L43.9 49.77L44.35 48.48L44.86 47.21L45.41 45.96L46 44.74L46.65 43.55L47.33 42.39L48.06 41.25L48.83 40.15L49.64 39.08L50.49 38.04L51.38 37.03L52.31 36.06L53.27 35.13L54.26 34.23L55.29 33.38L56.35 32.56L57.45 31.78L58.57 31.05L59.72 30.35L60.9 29.7L62.11 29.1L63.34 28.54L64.6 28.04L65.88 27.58L67.19 27.17L68.51 26.81L69.86 26.5L71.22 26.25L72.6 26.05L74 25.9L75.42 25.82L76.85 25.79L78.27 25.82L79.69 25.9ZM74.26 29.03L72.98 29.16L71.72 29.34L70.48 29.57L69.26 29.85L68.05 30.18L66.86 30.55L65.7 30.97L64.55 31.43L63.43 31.94L62.33 32.49L61.25 33.08L60.2 33.71L59.18 34.38L58.18 35.09L57.22 35.83L56.28 36.61L55.37 37.43L54.5 38.28L53.66 39.16L52.85 40.08L52.08 41.02L51.34 42L50.64 43.01L49.97 44.04L49.35 45.1L48.76 46.18L48.22 47.29L47.72 48.43L47.26 49.58L46.84 50.76L46.47 51.96L46.15 53.18L45.87 54.41L45.64 55.67L45.47 56.94L45.34 58.23L45.26 59.53L45.23 60.84L45.24 61.55L45.26 62.26L45.3 62.96L45.35 63.66L45.42 64.36L45.51 65.06L45.61 65.75L45.72 66.44L45.85 67.13L45.99 67.81L46.15 68.48L46.32 69.16L46.51 69.82L46.71 70.49L46.92 71.15L47.15 71.8L47.39 72.45L47.65 73.09L47.92 73.73L48.2 74.35L48.5 74.98L48.81 75.6L49.14 76.21L49.47 76.81L49.82 77.4L50.19 77.99L50.57 78.57L50.95 79.15L51.36 79.71L51.77 80.27L52.2 80.82L52.64 81.36L53.09 81.89L53.56 82.41L54.03 82.92L54.52 83.42L55.02 83.92L55.54 84.4L56.06 84.87L56.6 85.34L56.62 85.35L56.63 85.37L56.64 85.38L56.65 85.38L56.66 85.39L56.66 85.4L56.67 85.4L56.68 85.41L56.68 85.42L56.69 85.42L56.7 85.43L56.7 85.44L56.71 85.44L56.73 85.46L56.74 85.48L56.75 85.49L56.77 85.5L56.77 85.51L56.8 85.54L56.81 85.56L56.82 85.57L56.83 85.59L56.84 85.6L57.08 85.86L57.54 86.4L57.76 86.67L57.97 86.94L58.17 87.22L58.37 87.49L58.56 87.78L58.75 88.06L58.93 88.34L59.11 88.63L59.27 88.92L59.44 89.21L59.74 89.79L59.89 90.08L60.03 90.38L60.17 90.67L60.3 90.97L60.42 91.26L60.54 91.56L60.66 91.85L60.77 92.15L60.88 92.44L60.98 92.73L61.07 93.03L61.17 93.32L61.25 93.61L61.34 93.9L61.42 94.18L61.49 94.47L61.57 94.75L61.64 95.03L61.76 95.59L61.82 95.87L61.87 96.14L61.92 96.41L61.97 96.67L62.02 96.94L91.67 96.95L91.71 96.68L91.81 96.14L91.87 95.86L91.92 95.58L91.99 95.3L92.05 95.02L92.19 94.44L92.35 93.86L92.44 93.57L92.53 93.27L92.63 92.97L92.72 92.68L93.05 91.78L93.29 91.18L93.42 90.89L93.55 90.59L93.69 90.29L93.99 89.69L94.14 89.4L94.3 89.1L94.64 88.52L94.82 88.23L95.2 87.65L95.6 87.09L95.81 86.81L96.03 86.53L96.49 85.99L96.73 85.72L96.97 85.46L97.52 84.99L98.05 84.51L98.57 84.02L99.08 83.52L99.57 83.01L100.06 82.49L100.53 81.96L100.99 81.42L101.43 80.88L101.87 80.33L102.29 79.76L102.69 79.19L103.09 78.62L103.47 78.03L103.84 77.44L104.19 76.84L104.53 76.23L104.86 75.62L105.17 75L105.47 74.38L105.76 73.74L106.03 73.11L106.29 72.46L106.53 71.81L106.76 71.16L106.98 70.5L107.18 69.83L107.37 69.16L107.54 68.49L107.7 67.81L107.84 67.13L107.97 66.44L108.09 65.75L108.19 65.06L108.27 64.36L108.34 63.66L108.39 62.96L108.43 62.25L108.46 61.55L108.46 60.84L108.44 59.52L108.36 58.22L108.23 56.94L108.05 55.67L107.82 54.41L107.54 53.18L107.22 51.96L106.85 50.76L106.43 49.58L105.97 48.43L105.47 47.29L104.93 46.18L104.34 45.1L103.72 44.04L103.06 43.01L102.35 42L101.62 41.02L100.84 40.08L100.03 39.16L99.19 38.28L98.32 37.43L97.41 36.61L96.47 35.83L95.51 35.09L94.51 34.38L93.49 33.71L92.44 33.08L91.36 32.49L90.26 31.94L89.14 31.43L88 30.97L86.83 30.55L85.64 30.18L84.43 29.85L83.21 29.57L81.97 29.34L80.71 29.16L79.43 29.03L78.15 28.95L76.85 28.92L75.54 28.95L74.26 29.03Z" id="c19fJjgGdH"></path><path d="M79.69 25.9L81.09 26.05L82.47 26.25L83.83 26.5L85.18 26.81L86.5 27.17L87.81 27.58L89.09 28.04L90.35 28.54L91.58 29.1L92.79 29.7L93.97 30.35L95.12 31.05L96.24 31.78L97.34 32.56L98.4 33.38L99.43 34.23L100.42 35.13L101.38 36.06L102.31 37.03L103.2 38.04L104.05 39.08L104.86 40.15L105.63 41.25L106.36 42.39L107.04 43.55L107.68 44.74L108.28 45.96L108.83 47.21L109.34 48.48L109.79 49.77L110.2 51.09L110.56 52.43L110.86 53.78L111.11 55.16L111.31 56.56L111.45 57.97L111.54 59.4L111.57 60.84L111.56 61.62L111.53 62.4L111.49 63.17L111.43 63.94L111.36 64.71L111.26 65.48L111.15 66.24L111.03 66.99L110.89 67.75L110.73 68.5L110.56 69.24L110.37 69.98L110.16 70.71L109.94 71.44L109.71 72.17L109.46 72.88L109.19 73.6L108.91 74.3L108.61 75L108.3 75.69L107.97 76.38L107.63 77.05L107.27 77.72L106.9 78.39L106.52 79.04L106.12 79.69L105.71 80.33L105.28 80.95L104.84 81.58L104.38 82.19L103.91 82.79L103.43 83.38L102.93 83.96L102.42 84.54L101.9 85.1L101.36 85.65L100.81 86.19L100.25 86.72L99.67 87.24L99.08 87.75L98.86 87.99L98.64 88.24L98.43 88.49L98.03 89.01L97.84 89.27L97.48 89.81L97.31 90.09L97.14 90.36L96.99 90.64L96.83 90.92L96.69 91.21L96.55 91.49L96.41 91.78L96.28 92.07L96.16 92.36L96.04 92.65L95.71 93.52L95.62 93.81L95.52 94.1L95.43 94.38L95.27 94.96L95.19 95.24L95.12 95.53L95.06 95.81L94.99 96.09L94.93 96.36L94.88 96.64L94.82 96.91L94.78 97.18L94.73 97.44L94.69 97.7L94.65 97.96L94.62 98.21L94.58 98.46L94.55 98.7L94.55 98.76L94.54 98.82L94.52 98.87L94.5 98.99L94.46 99.09L94.44 99.15L94.41 99.2L94.39 99.25L94.33 99.35L94.3 99.39L94.27 99.44L94.24 99.48L94.2 99.53L94.16 99.57L94.13 99.61L94.05 99.69L94 99.72L93.96 99.76L93.92 99.79L93.82 99.85L93.78 99.88L93.73 99.91L93.68 99.93L93.63 99.96L93.57 99.98L93.52 100L93.47 100.01L93.41 100.03L93.36 100.04L93.3 100.06L93.25 100.06L93.19 100.07L93.13 100.08L93.01 100.08L60.67 100.07L60.55 100.07L60.49 100.06L60.44 100.06L60.38 100.05L60.32 100.03L60.27 100.02L60.21 100.01L60.16 99.99L60.06 99.95L60.01 99.92L59.96 99.9L59.81 99.81L59.77 99.78L59.72 99.75L59.68 99.71L59.64 99.68L59.56 99.6L59.48 99.52L59.45 99.47L59.41 99.43L59.38 99.38L59.35 99.34L59.32 99.29L59.29 99.24L59.25 99.14L59.22 99.08L59.2 99.03L59.19 98.98L59.17 98.92L59.15 98.86L59.14 98.81L59.12 98.69L59.09 98.45L59.03 97.95L58.95 97.43L58.9 97.17L58.8 96.63L58.74 96.36L58.68 96.08L58.62 95.8L58.55 95.52L58.48 95.23L58.4 94.95L58.24 94.37L58.15 94.08L57.95 93.5L57.73 92.92L57.62 92.62L57.5 92.33L57.37 92.04L57.24 91.75L57.1 91.46L56.95 91.17L56.8 90.88L56.64 90.6L56.48 90.31L56.31 90.03L56.13 89.75L55.95 89.48L55.76 89.2L55.56 88.93L55.36 88.67L55.15 88.4L54.93 88.14L54.7 87.89L54.47 87.63L54.46 87.63L54.46 87.62L53.87 87.11L53.31 86.59L52.75 86.06L52.21 85.52L51.67 84.97L51.16 84.41L50.65 83.84L50.16 83.26L49.68 82.67L49.22 82.07L48.77 81.46L48.33 80.84L47.91 80.21L47.5 79.58L47.11 78.93L46.73 78.28L46.36 77.62L46.01 76.96L45.67 76.28L45.35 75.6L45.04 74.91L44.75 74.22L44.47 73.52L44.21 72.81L43.96 72.1L43.72 71.38L43.3 69.92L43.12 69.19L42.95 68.45L42.79 67.7L42.65 66.95L42.53 66.2L42.42 65.45L42.33 64.69L42.25 63.92L42.2 63.16L42.15 62.39L42.13 61.61L42.12 60.84L42.15 59.4L42.24 57.97L42.38 56.56L42.58 55.16L42.83 53.78L43.13 52.43L43.49 51.09L43.9 49.77L44.35 48.48L44.86 47.21L45.41 45.96L46 44.74L46.65 43.55L47.33 42.39L48.06 41.25L48.83 40.15L49.64 39.08L50.49 38.04L51.38 37.03L52.31 36.06L53.27 35.13L54.26 34.23L55.29 33.38L56.35 32.56L57.45 31.78L58.57 31.05L59.72 30.35L60.9 29.7L62.11 29.1L63.34 28.54L64.6 28.04L65.88 27.58L67.19 27.17L68.51 26.81L69.86 26.5L71.22 26.25L72.6 26.05L74 25.9L75.42 25.82L76.85 25.79L78.27 25.82L79.69 25.9ZM74.26 29.03L72.98 29.16L71.72 29.34L70.48 29.57L69.26 29.85L68.05 30.18L66.86 30.55L65.7 30.97L64.55 31.43L63.43 31.94L62.33 32.49L61.25 33.08L60.2 33.71L59.18 34.38L58.18 35.09L57.22 35.83L56.28 36.61L55.37 37.43L54.5 38.28L53.66 39.16L52.85 40.08L52.08 41.02L51.34 42L50.64 43.01L49.97 44.04L49.35 45.1L48.76 46.18L48.22 47.29L47.72 48.43L47.26 49.58L46.84 50.76L46.47 51.96L46.15 53.18L45.87 54.41L45.64 55.67L45.47 56.94L45.34 58.23L45.26 59.53L45.23 60.84L45.24 61.55L45.26 62.26L45.3 62.96L45.35 63.66L45.42 64.36L45.51 65.06L45.61 65.75L45.72 66.44L45.85 67.13L45.99 67.81L46.15 68.48L46.32 69.16L46.51 69.82L46.71 70.49L46.92 71.15L47.15 71.8L47.39 72.45L47.65 73.09L47.92 73.73L48.2 74.35L48.5 74.98L48.81 75.6L49.14 76.21L49.47 76.81L49.82 77.4L50.19 77.99L50.57 78.57L50.95 79.15L51.36 79.71L51.77 80.27L52.2 80.82L52.64 81.36L53.09 81.89L53.56 82.41L54.03 82.92L54.52 83.42L55.02 83.92L55.54 84.4L56.06 84.87L56.6 85.34L56.62 85.35L56.63 85.37L56.64 85.38L56.65 85.38L56.66 85.39L56.66 85.4L56.67 85.4L56.68 85.41L56.68 85.42L56.69 85.42L56.7 85.43L56.7 85.44L56.71 85.44L56.73 85.46L56.74 85.48L56.75 85.49L56.77 85.5L56.77 85.51L56.8 85.54L56.81 85.56L56.82 85.57L56.83 85.59L56.84 85.6L57.08 85.86L57.54 86.4L57.76 86.67L57.97 86.94L58.17 87.22L58.37 87.49L58.56 87.78L58.75 88.06L58.93 88.34L59.11 88.63L59.27 88.92L59.44 89.21L59.74 89.79L59.89 90.08L60.03 90.38L60.17 90.67L60.3 90.97L60.42 91.26L60.54 91.56L60.66 91.85L60.77 92.15L60.88 92.44L60.98 92.73L61.07 93.03L61.17 93.32L61.25 93.61L61.34 93.9L61.42 94.18L61.49 94.47L61.57 94.75L61.64 95.03L61.76 95.59L61.82 95.87L61.87 96.14L61.92 96.41L61.97 96.67L62.02 96.94L91.67 96.95L91.71 96.68L91.81 96.14L91.87 95.86L91.92 95.58L91.99 95.3L92.05 95.02L92.19 94.44L92.35 93.86L92.44 93.57L92.53 93.27L92.63 92.97L92.72 92.68L93.05 91.78L93.29 91.18L93.42 90.89L93.55 90.59L93.69 90.29L93.99 89.69L94.14 89.4L94.3 89.1L94.64 88.52L94.82 88.23L95.2 87.65L95.6 87.09L95.81 86.81L96.03 86.53L96.49 85.99L96.73 85.72L96.97 85.46L97.52 84.99L98.05 84.51L98.57 84.02L99.08 83.52L99.57 83.01L100.06 82.49L100.53 81.96L100.99 81.42L101.43 80.88L101.87 80.33L102.29 79.76L102.69 79.19L103.09 78.62L103.47 78.03L103.84 77.44L104.19 76.84L104.53 76.23L104.86 75.62L105.17 75L105.47 74.38L105.76 73.74L106.03 73.11L106.29 72.46L106.53 71.81L106.76 71.16L106.98 70.5L107.18 69.83L107.37 69.16L107.54 68.49L107.7 67.81L107.84 67.13L107.97 66.44L108.09 65.75L108.19 65.06L108.27 64.36L108.34 63.66L108.39 62.96L108.43 62.25L108.46 61.55L108.46 60.84L108.44 59.52L108.36 58.22L108.23 56.94L108.05 55.67L107.82 54.41L107.54 53.18L107.22 51.96L106.85 50.76L106.43 49.58L105.97 48.43L105.47 47.29L104.93 46.18L104.34 45.1L103.72 44.04L103.06 43.01L102.35 42L101.62 41.02L100.84 40.08L100.03 39.16L99.19 38.28L98.32 37.43L97.41 36.61L96.47 35.83L95.51 35.09L94.51 34.38L93.49 33.71L92.44 33.08L91.36 32.49L90.26 31.94L89.14 31.43L88 30.97L86.83 30.55L85.64 30.18L84.43 29.85L83.21 29.57L81.97 29.34L80.71 29.16L79.43 29.03L78.15 28.95L76.85 28.92L75.54 28.95L74.26 29.03Z" id="a2cGA3asDu"></path><path d="M79.69 25.9L81.09 26.05L82.47 26.25L83.83 26.5L85.18 26.81L86.5 27.17L87.81 27.58L89.09 28.04L90.35 28.54L91.58 29.1L92.79 29.7L93.97 30.35L95.12 31.05L96.24 31.78L97.34 32.56L98.4 33.38L99.43 34.23L100.42 35.13L101.38 36.06L102.31 37.03L103.2 38.04L104.05 39.08L104.86 40.15L105.63 41.25L106.36 42.39L107.04 43.55L107.68 44.74L108.28 45.96L108.83 47.21L109.34 48.48L109.79 49.77L110.2 51.09L110.56 52.43L110.86 53.78L111.11 55.16L111.31 56.56L111.45 57.97L111.54 59.4L111.57 60.84L111.56 61.62L111.53 62.4L111.49 63.17L111.43 63.94L111.36 64.71L111.26 65.48L111.15 66.24L111.03 66.99L110.89 67.75L110.73 68.5L110.56 69.24L110.37 69.98L110.16 70.71L109.94 71.44L109.71 72.17L109.46 72.88L109.19 73.6L108.91 74.3L108.61 75L108.3 75.69L107.97 76.38L107.63 77.05L107.27 77.72L106.9 78.39L106.52 79.04L106.12 79.69L105.71 80.33L105.28 80.95L104.84 81.58L104.38 82.19L103.91 82.79L103.43 83.38L102.93 83.96L102.42 84.54L101.9 85.1L101.36 85.65L100.81 86.19L100.25 86.72L99.67 87.24L99.08 87.75L98.86 87.99L98.64 88.24L98.43 88.49L98.03 89.01L97.84 89.27L97.48 89.81L97.31 90.09L97.14 90.36L96.99 90.64L96.83 90.92L96.69 91.21L96.55 91.49L96.41 91.78L96.28 92.07L96.16 92.36L96.04 92.65L95.71 93.52L95.62 93.81L95.52 94.1L95.43 94.38L95.27 94.96L95.19 95.24L95.12 95.53L95.06 95.81L94.99 96.09L94.93 96.36L94.88 96.64L94.82 96.91L94.78 97.18L94.73 97.44L94.69 97.7L94.65 97.96L94.62 98.21L94.58 98.46L94.55 98.7L94.55 98.76L94.54 98.82L94.52 98.87L94.5 98.99L94.46 99.09L94.44 99.15L94.41 99.2L94.39 99.25L94.33 99.35L94.3 99.39L94.27 99.44L94.24 99.48L94.2 99.53L94.16 99.57L94.13 99.61L94.05 99.69L94 99.72L93.96 99.76L93.92 99.79L93.82 99.85L93.78 99.88L93.73 99.91L93.68 99.93L93.63 99.96L93.57 99.98L93.52 100L93.47 100.01L93.41 100.03L93.36 100.04L93.3 100.06L93.25 100.06L93.19 100.07L93.13 100.08L93.01 100.08L60.67 100.07L60.55 100.07L60.49 100.06L60.44 100.06L60.38 100.05L60.32 100.03L60.27 100.02L60.21 100.01L60.16 99.99L60.06 99.95L60.01 99.92L59.96 99.9L59.81 99.81L59.77 99.78L59.72 99.75L59.68 99.71L59.64 99.68L59.56 99.6L59.48 99.52L59.45 99.47L59.41 99.43L59.38 99.38L59.35 99.34L59.32 99.29L59.29 99.24L59.25 99.14L59.22 99.08L59.2 99.03L59.19 98.98L59.17 98.92L59.15 98.86L59.14 98.81L59.12 98.69L59.09 98.45L59.03 97.95L58.95 97.43L58.9 97.17L58.8 96.63L58.74 96.36L58.68 96.08L58.62 95.8L58.55 95.52L58.48 95.23L58.4 94.95L58.24 94.37L58.15 94.08L57.95 93.5L57.73 92.92L57.62 92.62L57.5 92.33L57.37 92.04L57.24 91.75L57.1 91.46L56.95 91.17L56.8 90.88L56.64 90.6L56.48 90.31L56.31 90.03L56.13 89.75L55.95 89.48L55.76 89.2L55.56 88.93L55.36 88.67L55.15 88.4L54.93 88.14L54.7 87.89L54.47 87.63L54.46 87.63L54.46 87.62L53.87 87.11L53.31 86.59L52.75 86.06L52.21 85.52L51.67 84.97L51.16 84.41L50.65 83.84L50.16 83.26L49.68 82.67L49.22 82.07L48.77 81.46L48.33 80.84L47.91 80.21L47.5 79.58L47.11 78.93L46.73 78.28L46.36 77.62L46.01 76.96L45.67 76.28L45.35 75.6L45.04 74.91L44.75 74.22L44.47 73.52L44.21 72.81L43.96 72.1L43.72 71.38L43.3 69.92L43.12 69.19L42.95 68.45L42.79 67.7L42.65 66.95L42.53 66.2L42.42 65.45L42.33 64.69L42.25 63.92L42.2 63.16L42.15 62.39L42.13 61.61L42.12 60.84L42.15 59.4L42.24 57.97L42.38 56.56L42.58 55.16L42.83 53.78L43.13 52.43L43.49 51.09L43.9 49.77L44.35 48.48L44.86 47.21L45.41 45.96L46 44.74L46.65 43.55L47.33 42.39L48.06 41.25L48.83 40.15L49.64 39.08L50.49 38.04L51.38 37.03L52.31 36.06L53.27 35.13L54.26 34.23L55.29 33.38L56.35 32.56L57.45 31.78L58.57 31.05L59.72 30.35L60.9 29.7L62.11 29.1L63.34 28.54L64.6 28.04L65.88 27.58L67.19 27.17L68.51 26.81L69.86 26.5L71.22 26.25L72.6 26.05L74 25.9L75.42 25.82L76.85 25.79L78.27 25.82L79.69 25.9ZM74.26 29.03L72.98 29.16L71.72 29.34L70.48 29.57L69.26 29.85L68.05 30.18L66.86 30.55L65.7 30.97L64.55 31.43L63.43 31.94L62.33 32.49L61.25 33.08L60.2 33.71L59.18 34.38L58.18 35.09L57.22 35.83L56.28 36.61L55.37 37.43L54.5 38.28L53.66 39.16L52.85 40.08L52.08 41.02L51.34 42L50.64 43.01L49.97 44.04L49.35 45.1L48.76 46.18L48.22 47.29L47.72 48.43L47.26 49.58L46.84 50.76L46.47 51.96L46.15 53.18L45.87 54.41L45.64 55.67L45.47 56.94L45.34 58.23L45.26 59.53L45.23 60.84L45.24 61.55L45.26 62.26L45.3 62.96L45.35 63.66L45.42 64.36L45.51 65.06L45.61 65.75L45.72 66.44L45.85 67.13L45.99 67.81L46.15 68.48L46.32 69.16L46.51 69.82L46.71 70.49L46.92 71.15L47.15 71.8L47.39 72.45L47.65 73.09L47.92 73.73L48.2 74.35L48.5 74.98L48.81 75.6L49.14 76.21L49.47 76.81L49.82 77.4L50.19 77.99L50.57 78.57L50.95 79.15L51.36 79.71L51.77 80.27L52.2 80.82L52.64 81.36L53.09 81.89L53.56 82.41L54.03 82.92L54.52 83.42L55.02 83.92L55.54 84.4L56.06 84.87L56.6 85.34L56.62 85.35L56.63 85.37L56.64 85.38L56.65 85.38L56.66 85.39L56.66 85.4L56.67 85.4L56.68 85.41L56.68 85.42L56.69 85.42L56.7 85.43L56.7 85.44L56.71 85.44L56.73 85.46L56.74 85.48L56.75 85.49L56.77 85.5L56.77 85.51L56.8 85.54L56.81 85.56L56.82 85.57L56.83 85.59L56.84 85.6L57.08 85.86L57.54 86.4L57.76 86.67L57.97 86.94L58.17 87.22L58.37 87.49L58.56 87.78L58.75 88.06L58.93 88.34L59.11 88.63L59.27 88.92L59.44 89.21L59.74 89.79L59.89 90.08L60.03 90.38L60.17 90.67L60.3 90.97L60.42 91.26L60.54 91.56L60.66 91.85L60.77 92.15L60.88 92.44L60.98 92.73L61.07 93.03L61.17 93.32L61.25 93.61L61.34 93.9L61.42 94.18L61.49 94.47L61.57 94.75L61.64 95.03L61.76 95.59L61.82 95.87L61.87 96.14L61.92 96.41L61.97 96.67L62.02 96.94L91.67 96.95L91.71 96.68L91.81 96.14L91.87 95.86L91.92 95.58L91.99 95.3L92.05 95.02L92.19 94.44L92.35 93.86L92.44 93.57L92.53 93.27L92.63 92.97L92.72 92.68L93.05 91.78L93.29 91.18L93.42 90.89L93.55 90.59L93.69 90.29L93.99 89.69L94.14 89.4L94.3 89.1L94.64 88.52L94.82 88.23L95.2 87.65L95.6 87.09L95.81 86.81L96.03 86.53L96.49 85.99L96.73 85.72L96.97 85.46L97.52 84.99L98.05 84.51L98.57 84.02L99.08 83.52L99.57 83.01L100.06 82.49L100.53 81.96L100.99 81.42L101.43 80.88L101.87 80.33L102.29 79.76L102.69 79.19L103.09 78.62L103.47 78.03L103.84 77.44L104.19 76.84L104.53 76.23L104.86 75.62L105.17 75L105.47 74.38L105.76 73.74L106.03 73.11L106.29 72.46L106.53 71.81L106.76 71.16L106.98 70.5L107.18 69.83L107.37 69.16L107.54 68.49L107.7 67.81L107.84 67.13L107.97 66.44L108.09 65.75L108.19 65.06L108.27 64.36L108.34 63.66L108.39 62.96L108.43 62.25L108.46 61.55L108.46 60.84L108.44 59.52L108.36 58.22L108.23 56.94L108.05 55.67L107.82 54.41L107.54 53.18L107.22 51.96L106.85 50.76L106.43 49.58L105.97 48.43L105.47 47.29L104.93 46.18L104.34 45.1L103.72 44.04L103.06 43.01L102.35 42L101.62 41.02L100.84 40.08L100.03 39.16L99.19 38.28L98.32 37.43L97.41 36.61L96.47 35.83L95.51 35.09L94.51 34.38L93.49 33.71L92.44 33.08L91.36 32.49L90.26 31.94L89.14 31.43L88 30.97L86.83 30.55L85.64 30.18L84.43 29.85L83.21 29.57L81.97 29.34L80.71 29.16L79.43 29.03L78.15 28.95L76.85 28.92L75.54 28.95L74.26 29.03Z" id="aswE2Kj0o"></path><path d="M60.52 106.76C63.74 106.76 89.5 106.76 92.72 106.76C93.57 106.76 94.26 107.53 94.26 108.47C94.26 109.42 93.58 110.18 92.72 110.18C86.28 110.18 63.74 110.18 60.52 110.18C59.67 110.18 58.98 109.42 58.98 108.47C58.98 107.53 59.67 106.76 60.52 106.76Z" id="c9VF2BjOb"></path><path d="M60.52 106.76C63.74 106.76 89.5 106.76 92.72 106.76C93.57 106.76 94.26 107.53 94.26 108.47C94.26 109.42 93.58 110.18 92.72 110.18C86.28 110.18 63.74 110.18 60.52 110.18C59.67 110.18 58.98 109.42 58.98 108.47C58.98 107.53 59.67 106.76 60.52 106.76Z" id="b52KCP6t0"></path><path d="M60.52 106.76C63.74 106.76 89.5 106.76 92.72 106.76C93.57 106.76 94.26 107.53 94.26 108.47C94.26 109.42 93.58 110.18 92.72 110.18C86.28 110.18 63.74 110.18 60.52 110.18C59.67 110.18 58.98 109.42 58.98 108.47C58.98 107.53 59.67 106.76 60.52 106.76Z" id="f12GJdMwZh"></path><path d="M60.52 106.76C63.74 106.76 89.5 106.76 92.72 106.76C93.57 106.76 94.26 107.53 94.26 108.47C94.26 109.42 93.58 110.18 92.72 110.18C86.28 110.18 63.74 110.18 60.52 110.18C59.67 110.18 58.98 109.42 58.98 108.47C58.98 107.53 59.67 106.76 60.52 106.76Z" id="b4SJMuIDWZ"></path><path d="M60.52 114.13C63.74 114.13 89.5 114.13 92.72 114.13C93.57 114.13 94.26 114.89 94.26 115.83C94.26 116.78 93.58 117.54 92.72 117.54C86.28 117.54 63.74 117.54 60.52 117.54C59.67 117.54 58.98 116.78 58.98 115.83C58.98 114.89 59.67 114.13 60.52 114.13Z" id="bTHstIW4i"></path><path d="M60.52 114.13C63.74 114.13 89.5 114.13 92.72 114.13C93.57 114.13 94.26 114.89 94.26 115.83C94.26 116.78 93.58 117.54 92.72 117.54C86.28 117.54 63.74 117.54 60.52 117.54C59.67 117.54 58.98 116.78 58.98 115.83C58.98 114.89 59.67 114.13 60.52 114.13Z" id="a5g7EPWsw0"></path><path d="M60.52 114.13C63.74 114.13 89.5 114.13 92.72 114.13C93.57 114.13 94.26 114.89 94.26 115.83C94.26 116.78 93.58 117.54 92.72 117.54C86.28 117.54 63.74 117.54 60.52 117.54C59.67 117.54 58.98 116.78 58.98 115.83C58.98 114.89 59.67 114.13 60.52 114.13Z" id="c3v8xORCD"></path><path d="M60.52 114.13C63.74 114.13 89.5 114.13 92.72 114.13C93.57 114.13 94.26 114.89 94.26 115.83C94.26 116.78 93.58 117.54 92.72 117.54C86.28 117.54 63.74 117.54 60.52 117.54C59.67 117.54 58.98 116.78 58.98 115.83C58.98 114.89 59.67 114.13 60.52 114.13Z" id="c3FY8XngFI"></path><path d="M67.18 121.24C68.99 121.24 83.45 121.24 85.26 121.24C86.4 121.24 87.33 122 87.33 122.95C87.33 123.89 86.4 124.66 85.26 124.66C81.64 124.66 68.99 124.66 67.18 124.66C66.03 124.66 65.1 123.89 65.1 122.95C65.1 122 66.03 121.24 67.18 121.24Z" id="i1D0roSfdn"></path><path d="M67.18 121.24C68.99 121.24 83.45 121.24 85.26 121.24C86.4 121.24 87.33 122 87.33 122.95C87.33 123.89 86.4 124.66 85.26 124.66C81.64 124.66 68.99 124.66 67.18 124.66C66.03 124.66 65.1 123.89 65.1 122.95C65.1 122 66.03 121.24 67.18 121.24Z" id="d96qtVkUz"></path><path d="M67.18 121.24C68.99 121.24 83.45 121.24 85.26 121.24C86.4 121.24 87.33 122 87.33 122.95C87.33 123.89 86.4 124.66 85.26 124.66C81.64 124.66 68.99 124.66 67.18 124.66C66.03 124.66 65.1 123.89 65.1 122.95C65.1 122 66.03 121.24 67.18 121.24Z" id="fZE6ZG8yG"></path><path d="M67.18 121.24C68.99 121.24 83.45 121.24 85.26 121.24C86.4 121.24 87.33 122 87.33 122.95C87.33 123.89 86.4 124.66 85.26 124.66C81.64 124.66 68.99 124.66 67.18 124.66C66.03 124.66 65.1 123.89 65.1 122.95C65.1 122 66.03 121.24 67.18 121.24Z" id="a1OFS66uZh"></path></defs><g><g><g><use xlink:href="#a5vmVtS41r" opacity="1" fill="#000000" fill-opacity="0"></use><g><use xlink:href="#a5vmVtS41r" opacity="1" fill-opacity="0" stroke="#4e68d2" stroke-width="1" stroke-opacity="1"></use></g></g><g><use xlink:href="#cEMQEuW8P" opacity="1" fill="#3d6cb0" fill-opacity="1"></use><g><use xlink:href="#cEMQEuW8P" opacity="1" fill-opacity="0" stroke="#000000" stroke-width="1" stroke-opacity="0"></use></g></g><g><use xlink:href="#a6VWDQvlQ" opacity="1" fill="#ffffff" fill-opacity="1"></use><g><use xlink:href="#a6VWDQvlQ" opacity="1" fill-opacity="0" stroke="#000000" stroke-width="1" stroke-opacity="0"></use></g></g><g><use xlink:href="#c19fJjgGdH" opacity="1" fill="#000000" fill-opacity="0"></use><g><use xlink:href="#c19fJjgGdH" opacity="1" fill-opacity="0" stroke="#000000" stroke-width="1" stroke-opacity="0"></use></g></g><g><use xlink:href="#a2cGA3asDu" opacity="1" fill="#000000" fill-opacity="0"></use><g><use xlink:href="#a2cGA3asDu" opacity="1" fill-opacity="0" stroke="#000000" stroke-width="1" stroke-opacity="0"></use></g></g><g><use xlink:href="#aswE2Kj0o" opacity="1" fill="#000000" fill-opacity="0"></use><g><use xlink:href="#aswE2Kj0o" opacity="1" fill-opacity="0" stroke="#000000" stroke-width="1" stroke-opacity="0"></use></g></g><g><use xlink:href="#c9VF2BjOb" opacity="1" fill="#ffffff" fill-opacity="1"></use><g><use xlink:href="#c9VF2BjOb" opacity="1" fill-opacity="0" stroke="#000000" stroke-width="1" stroke-opacity="0"></use></g></g><g><use xlink:href="#b52KCP6t0" opacity="1" fill="#000000" fill-opacity="0"></use><g><use xlink:href="#b52KCP6t0" opacity="1" fill-opacity="0" stroke="#000000" stroke-width="1" stroke-opacity="0"></use></g></g><g><use xlink:href="#f12GJdMwZh" opacity="1" fill="#000000" fill-opacity="0"></use><g><use xlink:href="#f12GJdMwZh" opacity="1" fill-opacity="0" stroke="#000000" stroke-width="1" stroke-opacity="0"></use></g></g><g><use xlink:href="#b4SJMuIDWZ" opacity="1" fill="#000000" fill-opacity="0"></use><g><use xlink:href="#b4SJMuIDWZ" opacity="1" fill-opacity="0" stroke="#000000" stroke-width="1" stroke-opacity="0"></use></g></g><g><use xlink:href="#bTHstIW4i" opacity="1" fill="#ffffff" fill-opacity="1"></use><g><use xlink:href="#bTHstIW4i" opacity="1" fill-opacity="0" stroke="#000000" stroke-width="1" stroke-opacity="0"></use></g></g><g><use xlink:href="#a5g7EPWsw0" opacity="1" fill="#000000" fill-opacity="0"></use><g><use xlink:href="#a5g7EPWsw0" opacity="1" fill-opacity="0" stroke="#000000" stroke-width="1" stroke-opacity="0"></use></g></g><g><use xlink:href="#c3v8xORCD" opacity="1" fill="#000000" fill-opacity="0"></use><g><use xlink:href="#c3v8xORCD" opacity="1" fill-opacity="0" stroke="#000000" stroke-width="1" stroke-opacity="0"></use></g></g><g><use xlink:href="#c3FY8XngFI" opacity="1" fill="#000000" fill-opacity="0"></use><g><use xlink:href="#c3FY8XngFI" opacity="1" fill-opacity="0" stroke="#000000" stroke-width="1" stroke-opacity="0"></use></g></g><g><use xlink:href="#i1D0roSfdn" opacity="1" fill="#ffffff" fill-opacity="1"></use><g><use xlink:href="#i1D0roSfdn" opacity="1" fill-opacity="0" stroke="#000000" stroke-width="1" stroke-opacity="0"></use></g></g><g><use xlink:href="#d96qtVkUz" opacity="1" fill="#000000" fill-opacity="0"></use><g><use xlink:href="#d96qtVkUz" opacity="1" fill-opacity="0" stroke="#000000" stroke-width="1" stroke-opacity="0"></use></g></g><g><use xlink:href="#fZE6ZG8yG" opacity="1" fill="#000000" fill-opacity="0"></use><g><use xlink:href="#fZE6ZG8yG" opacity="1" fill-opacity="0" stroke="#000000" stroke-width="1" stroke-opacity="0"></use></g></g><g><use xlink:href="#a1OFS66uZh" opacity="1" fill="#000000" fill-opacity="0"></use><g><use xlink:href="#a1OFS66uZh" opacity="1" fill-opacity="0" stroke="#000000" stroke-width="1" stroke-opacity="0"></use></g></g></g></g></svg>