<?xml version="1.0" encoding="UTF-8" standalone="no"?>
<!DOCTYPE svg PUBLIC "-//W3C//DTD SVG 1.1//EN" "http://www.w3.org/Graphics/SVG/1.1/DTD/svg11.dtd">
<svg version="1.1" xmlns="http://www.w3.org/2000/svg" xmlns:xlink="http://www.w3.org/1999/xlink" preserveAspectRatio="xMidYMid meet" viewBox="0 0 151 151" width="151" height="151"><defs><path d="M0.5 75.5C0.5 34.1 34.11 0.5 75.5 0.5C116.89 0.5 150.5 34.1 150.5 75.5C150.5 116.89 116.89 150.5 75.5 150.5C34.11 150.5 0.5 116.89 0.5 75.5Z" id="dYasTqbVp"></path><path d="M5.5 75.5C5.5 36.86 36.87 5.5 75.5 5.5C114.13 5.5 145.5 36.86 145.5 75.5C145.5 114.13 114.13 145.5 75.5 145.5C36.87 145.5 5.5 114.13 5.5 75.5Z" id="a79SXkmUy"></path><path d="M115.69 83.36C115.69 88.89 111.22 93.36 105.69 93.36C91.82 93.36 60.19 93.36 46.31 93.36C40.79 93.36 36.31 88.89 36.31 83.36C36.31 74.43 36.31 57.63 36.31 48.69C36.31 43.17 40.79 38.69 46.31 38.69C60.19 38.69 91.82 38.69 105.69 38.69C111.22 38.69 115.69 43.17 115.69 48.69C115.69 57.63 115.69 74.43 115.69 83.36Z" id="b4XAmXKTlU"></path><path d="M115.69 83.36C115.69 88.89 111.22 93.36 105.69 93.36C91.82 93.36 60.19 93.36 46.31 93.36C40.79 93.36 36.31 88.89 36.31 83.36C36.31 74.43 36.31 57.63 36.31 48.69C36.31 43.17 40.79 38.69 46.31 38.69C60.19 38.69 91.82 38.69 105.69 38.69C111.22 38.69 115.69 43.17 115.69 48.69C115.69 57.63 115.69 74.43 115.69 83.36Z" id="b3bJc6Yev1"></path><path d="M111.63 76.32C111.63 83.05 106.18 88.5 99.45 88.5C87.64 88.5 64.36 88.5 52.55 88.5C45.82 88.5 40.37 83.05 40.37 76.32C40.37 69.77 40.37 62.29 40.37 55.74C40.37 49.01 45.82 43.56 52.55 43.56C64.36 43.56 87.64 43.56 99.45 43.56C106.18 43.56 111.63 49.01 111.63 55.74C111.63 62.29 111.63 69.77 111.63 76.32Z" id="a2owyhqVWV"></path><path d="M111.63 76.32C111.63 83.05 106.18 88.5 99.45 88.5C87.64 88.5 64.36 88.5 52.55 88.5C45.82 88.5 40.37 83.05 40.37 76.32C40.37 69.77 40.37 62.29 40.37 55.74C40.37 49.01 45.82 43.56 52.55 43.56C64.36 43.56 87.64 43.56 99.45 43.56C106.18 43.56 111.63 49.01 111.63 55.74C111.63 62.29 111.63 69.77 111.63 76.32Z" id="cCqNqs0Gw"></path><path d="M111.63 107.59C111.63 110.9 108.95 113.58 105.64 113.58C92.58 113.58 59.42 113.58 46.36 113.58C43.06 113.58 40.37 110.9 40.37 107.59C40.37 106.39 40.37 108.79 40.37 107.59C40.37 104.28 43.06 101.6 46.36 101.6C59.42 101.6 92.58 101.6 105.64 101.6C108.95 101.6 111.63 104.28 111.63 107.59C111.63 108.79 111.63 106.39 111.63 107.59Z" id="b27hOsYzqc"></path><path d="M111.63 107.59C111.63 110.9 108.95 113.58 105.64 113.58C92.58 113.58 59.42 113.58 46.36 113.58C43.06 113.58 40.37 110.9 40.37 107.59C40.37 106.39 40.37 108.79 40.37 107.59C40.37 104.28 43.06 101.6 46.36 101.6C59.42 101.6 92.58 101.6 105.64 101.6C108.95 101.6 111.63 104.28 111.63 107.59C111.63 108.79 111.63 106.39 111.63 107.59Z" id="auxSLWu3G"></path></defs><g><g><g><use xlink:href="#dYasTqbVp" opacity="1" fill="#000000" fill-opacity="0"></use><g><use xlink:href="#dYasTqbVp" opacity="1" fill-opacity="0" stroke="#4e68d2" stroke-width="1" stroke-opacity="1"></use></g></g><g><use xlink:href="#a79SXkmUy" opacity="1" fill="#3d6cb0" fill-opacity="1"></use><g><use xlink:href="#a79SXkmUy" opacity="1" fill-opacity="0" stroke="#000000" stroke-width="1" stroke-opacity="0"></use></g></g><g><use xlink:href="#b4XAmXKTlU" opacity="1" fill="#eff6ef" fill-opacity="1"></use><g><use xlink:href="#b4XAmXKTlU" opacity="1" fill-opacity="0" stroke="#000000" stroke-width="1" stroke-opacity="0"></use></g></g><g><use xlink:href="#b3bJc6Yev1" opacity="1" fill="#000000" fill-opacity="0"></use><g><use xlink:href="#b3bJc6Yev1" opacity="1" fill-opacity="0" stroke="#000000" stroke-width="1" stroke-opacity="0"></use></g></g><g><use xlink:href="#a2owyhqVWV" opacity="1" fill="#3d6cb0" fill-opacity="1"></use><g><use xlink:href="#a2owyhqVWV" opacity="1" fill-opacity="0" stroke="#000000" stroke-width="1" stroke-opacity="0"></use></g></g><g><use xlink:href="#cCqNqs0Gw" opacity="1" fill="#000000" fill-opacity="0"></use><g><use xlink:href="#cCqNqs0Gw" opacity="1" fill-opacity="0" stroke="#000000" stroke-width="1" stroke-opacity="0"></use></g></g><g><use xlink:href="#b27hOsYzqc" opacity="1" fill="#ffffff" fill-opacity="1"></use><g><use xlink:href="#b27hOsYzqc" opacity="1" fill-opacity="0" stroke="#000000" stroke-width="1" stroke-opacity="0"></use></g></g><g><use xlink:href="#auxSLWu3G" opacity="1" fill="#000000" fill-opacity="0"></use><g><use xlink:href="#auxSLWu3G" opacity="1" fill-opacity="0" stroke="#000000" stroke-width="1" stroke-opacity="0"></use></g></g></g></g></svg>